{"title":"Taken 2 2012 CAM XviD-NOYPi","uid":7703840,"size":912185344,"categoryP":"video","categoryS":"movies","magnet":"?xt=urn:btih:31cdc2d66a35474b5e3deb3626a517a46ffebf00&amp;dn=Taken+2+2012+CAM+XviD-NOYPi&amp;tr=udp%3A%2F%2Ftracker.openbittorrent.com%3A80&amp;tr=udp%3A%2F%2Fopen.demonii.com%3A1337&amp;tr=udp%3A%2F%2Ftracker.coppersurfer.tk%3A6969&amp;tr=udp%3A%2F%2Fexodus.desync.com%3A6969","seeders":2,"leechers":0,"uploader":"LegendET","files":2,"time":1349624367,"description":" &lt;a href=&quot;http://i.imgbox.com/abkPbnrx.jpg&quot; rel=&quot;nofollow&quot; target=&quot;_NEW&quot;&gt;http://i.imgbox.com/abkPbnrx.jpg&lt;/a&gt;\n\nGeneral\nComplete name                            : C:Users\\DocumentsTaken 2 2012 CAM XviD-NOYPi.avi\nFormat                                   : AVI\nFormat/Info                              : Audio Video Interleave\nFile size                                : 862 MiB\nDuration                                 : 1h 23mn\nOverall bit rate                         : 1 445 Kbps\nWriting application                      : VirtualDubMod 1.5.10.2 (build 2540/release)\nWriting library                          : VirtualDubMod build 2540/release\n\nVideo\nID                                       : 0\nFormat                                   : MPEG-4 Visual\nFormat profile                           : Advanced Simple@L5\nFormat settings, BVOP                    : 2\nFormat settings, QPel                    : No\nFormat settings, GMC                     : No warppoints\nFormat settings, Matrix                  : Default (H.263)\nMuxing mode                              : Packed bitstream\nCodec ID                                 : XVID\nCodec ID/Hint                            : XviD\nDuration                                 : 1h 23mn\nBit rate                                 : 666 Kbps\nWidth                                    : 640 pixels\nHeight                                   : 300 pixels\nDisplay aspect ratio                     : 3:2\nOriginal display aspect ratio            : 2.133\nFrame rate                               : 29.970 fps\nColor space                              : YUV\nChroma subsampling                       : 4:2:0\nBit depth                                : 8 bits\nScan type                                : Progressive\nCompression mode                         : Lossy\nBits/(Pixel*Frame)                       : 0.116\nStream size                              : 397 MiB (46%)\nWriting library                          : XviD 64\n\nAudio\nID                                       : 1\nFormat                                   : PCM\nFormat settings, Endianness              : Little\nFormat settings, Sign                    : Signed\nCodec ID                                 : 1\nDuration                                 : 1h 23mn\nBit rate mode                            : Constant\nBit rate                                 : 768 Kbps\nChannel(s)                               : 1 channel\nSampling rate                            : 48.0 KHz\nBit depth                                : 16 bits\nStream size                              : 458 MiB (53%)\nInterleave, duration                     : 33 ms (1.00 video frame)\nInterleave, preload duration             : 500 ms\n &lt;a href=&quot;\nhttp://i.imgbox.com/adt2qcLF.png&quot; rel=&quot;nofollow&quot; target=&quot;_NEW&quot;&gt;\nhttp://i.imgbox.com/adt2qcLF.png&lt;/a&gt; &lt;a href=&quot;\nhttp://i.imgbox.com/abfphtjs.png&quot; rel=&quot;nofollow&quot; target=&quot;_NEW&quot;&gt;\nhttp://i.imgbox.com/abfphtjs.png&lt;/a&gt; &lt;a href=&quot;\nhttp://i.imgbox.com/acxyWb14.png&quot; rel=&quot;nofollow&quot; target=&quot;_NEW&quot;&gt;\nhttp://i.imgbox.com/acxyWb14.png&lt;/a&gt; &lt;a href=&quot;\nhttp://i.imgbox.com/adhqGTV3.png&quot; rel=&quot;nofollow&quot; target=&quot;_NEW&quot;&gt;\nhttp://i.imgbox.com/adhqGTV3.png&lt;/a&gt;","torrent":{"xt":"urn:btih:31cdc2d66a35474b5e3deb3626a517a46ffebf00","amp;dn":"Taken+2+2012+CAM+XviD-NOYPi","amp;tr":["udp%3A%2F%2Ftracker.openbittorrent.com%3A80","udp%3A%2F%2Fopen.demonii.com%3A1337","udp%3A%2F%2Ftracker.coppersurfer.tk%3A6969","udp%3A%2F%2Fexodus.desync.com%3A6969"],"infoHash":"31cdc2d66a35474b5e3deb3626a517a46ffebf00","infoHashBuffer":{"type":"Buffer","data":[49,205,194,214,106,53,71,75,94,61,235,54,38,165,23,164,111,254,191,0]},"announce":[],"urlList":[]}}